<svg xmlns="http://www.w3.org/2000/svg" version="1.1" xmlns:xlink="http://www.w3.org/1999/xlink" xmlns:svgjs="http://svgjs.dev/svgjs" width="1000" height="1000" viewBox="0 0 1000 1000"><rect width="1000" height="1000" fill="#000000"></rect><g transform="matrix(0.7,0,0,0.7,149.58018064294822,434.9338485487146)"><svg viewBox="0 0 396 74" data-background-color="#ffffff" preserveAspectRatio="xMidYMid meet" height="186" width="1000" xmlns="http://www.w3.org/2000/svg" xmlns:xlink="http://www.w3.org/1999/xlink"><g id="tight-bounds" transform="matrix(1,0,0,1,0.2374978077035621,-0.01879853116449226)"><svg viewBox="0 0 395.52 74.03747992586675" height="74.03747992586675" width="395.52"><g><svg viewBox="0 0 654.5095759529961 122.51779831843523" height="74.03747992586675" width="395.52"><g transform="matrix(1,0,0,1,0,11.451593076318318)"><svg viewBox="0 0 395.52 99.61461216579859" height="99.61461216579859" width="395.52"><g><svg viewBox="0 0 395.52 99.61461216579859" height="99.61461216579859" width="395.52"><g><svg viewBox="0 0 395.52 61.667496708670306" height="61.667496708670306" width="395.52"><g transform="matrix(1,0,0,1,0,0)"><svg width="395.52" viewBox="1.5099999904632568 -38.09000015258789 259.5999755859375 40.47999954223633" height="61.667496708670306" data-palette-color="#332885"><path d="M23.05-28.86L23.05-28.86Q23.05-25.49 21.39-22.73 19.73-19.97 16.94-18.12L16.94-18.12Q18.41-17.82 19.48-17.11 20.56-16.41 21.26-15.38 21.97-14.36 22.34-13.06 22.71-11.77 22.71-10.35L22.71-10.35Q22.71-7.57 21.41-5.49 20.12-3.42 18.07-2.08 16.02-0.73 13.5-0.07 10.99 0.59 8.5 0.59L8.5 0.59Q7.13 0.59 5.76 0.39 4.39 0.2 3.17-0.29L3.17-0.29Q2.73-0.44 2.44-1.49 2.15-2.54 1.98-4.05 1.81-5.57 1.71-7.32 1.61-9.08 1.56-10.69 1.51-12.3 1.51-13.53 1.51-14.75 1.51-15.23L1.51-15.23Q1.51-16.94 1.51-18.68 1.51-20.41 1.61-22.12L1.61-22.12Q1.61-22.56 1.64-23.49 1.66-24.41 1.68-25.56 1.71-26.71 1.78-27.98 1.86-29.25 1.98-30.35 2.1-31.45 2.32-32.23 2.54-33.01 2.83-33.2L2.83-33.2Q3.96-33.94 5.32-34.59 6.69-35.25 8.15-35.74 9.62-36.23 11.08-36.52 12.55-36.82 13.87-36.82L13.87-36.82Q15.67-36.82 17.36-36.3 19.04-35.79 20.29-34.77 21.53-33.74 22.29-32.25 23.05-30.76 23.05-28.86ZM14.94-26.27L14.94-26.27Q14.94-27.1 14.43-27.49 13.92-27.88 13.09-27.88L13.09-27.88Q12.4-27.88 11.65-27.59 10.89-27.29 10.35-26.81L10.35-26.81Q10.21-26.66 10.08-25.98 9.96-25.29 9.89-24.44 9.81-23.58 9.79-22.83 9.77-22.07 9.77-21.83L9.77-21.83Q9.77-21.73 9.77-21.51 9.77-21.29 9.79-21.04 9.81-20.8 9.86-20.61 9.91-20.41 10.01-20.41L10.01-20.41Q10.84-20.41 11.72-21.02 12.6-21.63 13.31-22.53 14.01-23.44 14.48-24.46 14.94-25.49 14.94-26.27ZM14.75-12.16L14.75-12.16Q14.75-12.99 14.16-13.33 13.57-13.67 12.84-13.67L12.84-13.67Q12.16-13.67 11.4-13.35 10.64-13.04 10.16-12.6L10.16-12.6Q10.01-12.5 9.94-12.11 9.86-11.72 9.84-11.25 9.81-10.79 9.79-10.38 9.77-9.96 9.77-9.81L9.77-9.81Q9.77-9.72 9.77-9.42 9.77-9.13 9.79-8.81 9.81-8.5 9.89-8.23 9.96-7.96 10.06-7.96L10.06-7.96Q10.74-7.96 11.57-8.35 12.4-8.74 13.11-9.33 13.82-9.91 14.28-10.67 14.75-11.43 14.75-12.16ZM48.53-6.74L48.53-6.74Q48.53-5.52 47.53-4.44 46.53-3.37 44.94-2.49 43.36-1.61 41.4-0.95 39.45-0.29 37.55 0.17 35.64 0.63 33.96 0.88 32.27 1.12 31.3 1.12L31.3 1.12Q30.37 1.12 29.32 0.95 28.27 0.78 27.59 0.2L27.59 0.2Q27.19-0.1 26.9-1.12 26.61-2.15 26.34-3.56 26.07-4.98 25.88-6.62 25.68-8.25 25.56-9.81 25.44-11.38 25.36-12.7 25.29-14.01 25.29-14.75L25.29-14.75Q25.29-15.97 25.36-17.7 25.44-19.43 25.58-21.41 25.73-23.39 25.97-25.44 26.22-27.49 26.54-29.32 26.85-31.15 27.32-32.62 27.78-34.08 28.32-34.91L28.32-34.91Q29.25-36.23 30.66-36.23L30.66-36.23Q31.64-36.23 32.32-35.57 33.01-34.91 33.42-33.86 33.84-32.81 34.06-31.52 34.27-30.22 34.37-28.96 34.47-27.69 34.47-26.61 34.47-25.54 34.47-24.9L34.47-24.9Q34.47-21.09 34.3-17.36 34.13-13.62 34.13-9.81L34.13-9.81 34.13-7.91Q36.33-8.59 38.91-9.2 41.5-9.81 43.85-9.81L43.85-9.81Q44.68-9.81 45.53-9.72 46.38-9.62 47.04-9.3 47.7-8.98 48.12-8.37 48.53-7.76 48.53-6.74ZM73.92-17.14L73.92-17.14Q73.92-15.14 73.73-13.01 73.53-10.89 73.04-8.89 72.55-6.88 71.7-5.1 70.84-3.32 69.53-1.98 68.21-0.63 66.35 0.15 64.5 0.93 62.01 0.93L62.01 0.93Q58.34 0.93 55.63-0.78 52.92-2.49 51.12-5.15 49.31-7.81 48.43-11.11 47.55-14.4 47.55-17.63L47.55-17.63Q47.55-17.97 47.55-18.26 47.55-18.55 47.6-18.8L47.6-18.8Q47.65-19.82 47.77-21.58 47.9-23.34 48.19-25.34 48.48-27.34 48.95-29.44 49.41-31.54 50.17-33.2 50.92-34.86 52-35.94 53.07-37.01 54.54-37.01L54.54-37.01Q55.61-37.01 56.34-36.38 57.08-35.74 57.54-34.79 58-33.84 58.2-32.79 58.39-31.74 58.39-30.86L58.39-30.86Q58.39-29.54 58.12-28.2 57.86-26.86 57.61-25.54L57.61-25.54Q57.22-23.44 56.98-21.34 56.73-19.24 56.73-17.04L56.73-17.04Q56.73-15.92 56.86-14.31 56.98-12.7 57.47-11.21 57.95-9.72 58.86-8.67 59.76-7.62 61.32-7.62L61.32-7.62Q62.84-7.62 63.74-8.64 64.64-9.67 65.08-11.08 65.52-12.5 65.64-14.06 65.77-15.63 65.77-16.75L65.77-16.75Q65.77-19.97 65.23-23.12 64.69-26.27 63.81-29.39L63.81-29.39Q63.57-30.22 63.4-31.05 63.23-31.88 63.23-32.71L63.23-32.71Q63.23-34.08 64.03-35.11 64.84-36.13 66.3-36.13L66.3-36.13Q67.52-36.13 68.57-35.18 69.62-34.23 70.45-32.69 71.28-31.15 71.89-29.25 72.5-27.34 72.94-25.46 73.38-23.58 73.6-21.88 73.82-20.17 73.87-19.09L73.87-19.09Q73.92-18.6 73.92-18.14 73.92-17.68 73.92-17.14ZM98.43-7.67L98.43-7.67Q98.43-6.74 97.94-5.86L97.94-5.86Q97.45-5.03 95.65-3.91 93.84-2.78 91.64-1.78 89.45-0.78 87.39-0.07 85.34 0.63 84.37 0.63L84.37 0.63Q83.68 0.63 82.76 0.32 81.83 0 80.9-0.49 79.97-0.98 79.22-1.61 78.46-2.25 78.12-2.83L78.12-2.83Q77.92-3.17 77.75-4.2 77.58-5.22 77.46-6.59 77.34-7.96 77.24-9.5 77.14-11.04 77.07-12.43 76.99-13.82 76.97-14.89 76.95-15.97 76.95-16.46L76.95-16.46Q76.95-18.26 77.07-20.61 77.19-22.95 77.53-25.32 77.87-27.69 78.53-29.86 79.19-32.03 80.31-33.54L80.31-33.54Q80.66-33.98 81.68-34.47 82.71-34.96 84.1-35.4 85.49-35.84 87.1-36.23 88.71-36.62 90.2-36.89 91.69-37.16 92.91-37.33 94.13-37.5 94.77-37.5L94.77-37.5Q95.5-37.5 96.16-37.18 96.82-36.87 97.28-36.33 97.75-35.79 98.01-35.13 98.28-34.47 98.28-33.74L98.28-33.74Q98.28-33.11 98.11-32.67 97.94-32.23 97.6-31.69L97.6-31.69Q97.11-31.05 95.55-30.18 93.99-29.3 92.16-28.44 90.32-27.59 88.64-26.9 86.96-26.22 86.27-25.93L86.27-25.93Q86.08-24.8 85.86-23.66 85.64-22.51 85.54-21.34L85.54-21.34Q87.05-22.12 88.96-22.8 90.86-23.49 92.57-23.49L92.57-23.49Q96.04-23.49 96.04-20.07L96.04-20.07Q96.04-19.24 95.72-18.6 95.4-17.97 94.89-17.48 94.38-16.99 93.72-16.63 93.06-16.26 92.42-15.92L92.42-15.92Q90.86-15.09 89.15-14.48 87.44-13.87 85.73-13.28L85.73-13.28Q85.64-12.89 85.54-12.43 85.44-11.96 85.44-11.52L85.44-11.52Q85.44-10.84 85.54-10.16 85.64-9.47 85.73-8.79L85.73-8.79Q86.32-8.98 87.61-9.42 88.91-9.86 90.32-10.3 91.74-10.74 93.06-11.06 94.38-11.38 95.01-11.38L95.01-11.38Q95.74-11.38 96.38-11.06 97.01-10.74 97.45-10.23 97.89-9.72 98.16-9.03 98.43-8.35 98.43-7.67ZM123.57 1.61L123.57 1.61Q120.59 1.61 118.4 0.12 116.2-1.37 114.76-3.88 113.32-6.4 112.61-9.72 111.9-13.04 111.9-16.7L111.9-16.7Q111.9-20.12 112.66-23.63 113.42-27.15 114.98-29.98 116.54-32.81 118.93-34.62 121.33-36.43 124.65-36.43L124.65-36.43Q127.87-36.43 130.04-34.69 132.21-32.96 133.51-30.2 134.8-27.44 135.36-24.02 135.93-20.61 135.93-17.19L135.93-17.19Q135.93-13.38 135.17-9.99 134.41-6.59 132.87-4 131.34-1.42 129.02 0.1 126.7 1.61 123.57 1.61ZM124.16-25.63L124.16-25.63Q123.23-25.63 122.57-24.9 121.91-24.17 121.47-22.97 121.03-21.78 120.84-20.29 120.64-18.8 120.64-17.29L120.64-17.29Q120.64-15.58 120.86-13.87 121.08-12.16 121.52-10.79 121.96-9.42 122.62-8.59 123.28-7.76 124.21-7.76L124.21-7.76Q125.28-7.76 125.92-8.84 126.55-9.91 126.92-11.43 127.28-12.94 127.4-14.55 127.53-16.16 127.53-17.24L127.53-17.24Q127.53-18.55 127.36-20.02 127.18-21.48 126.79-22.73 126.4-23.97 125.77-24.8 125.13-25.63 124.16-25.63ZM160.24-24.85L160.24-24.85Q160.24-23.93 160.02-22.9 159.8-21.88 159.31-21 158.82-20.12 158.04-19.53 157.26-18.95 156.14-18.95L156.14-18.95Q154.43-18.95 153.6-19.56 152.77-20.17 152.43-21.09 152.08-22.02 152.06-23.07 152.04-24.12 151.99-25.05 151.94-25.98 151.67-26.59 151.4-27.2 150.52-27.2L150.52-27.2Q149.55-27.2 148.81-26.49 148.08-25.78 147.54-24.66 147.01-23.54 146.64-22.12 146.27-20.7 146.05-19.31 145.83-17.92 145.74-16.67 145.64-15.43 145.64-14.65L145.64-14.65Q145.64-13.62 145.71-12.21 145.79-10.79 146.18-9.5 146.57-8.2 147.35-7.3 148.13-6.4 149.59-6.4L149.59-6.4Q150.57-6.4 151.5-6.64 152.43-6.88 153.35-7.2 154.28-7.52 155.23-7.76 156.19-8.01 157.16-8.01L157.16-8.01Q158.29-8.01 159.02-7.1 159.75-6.2 159.75-5.08L159.75-5.08Q159.75-3.52 158.77-2.17 157.8-0.83 156.36 0.2 154.92 1.22 153.23 1.81 151.55 2.39 150.18 2.39L150.18 2.39Q146.66 2.39 144.22 0.81 141.78-0.78 140.27-3.3 138.75-5.81 138.1-8.91 137.44-12.01 137.44-15.09L137.44-15.09Q137.44-17.14 137.83-19.58 138.22-22.02 139-24.49 139.78-26.95 140.98-29.25 142.17-31.54 143.78-33.3 145.4-35.06 147.42-36.13 149.45-37.21 151.89-37.21L151.89-37.21Q154.28-37.21 155.89-36.01 157.5-34.81 158.48-32.98 159.46-31.15 159.85-28.98 160.24-26.81 160.24-24.85ZM183.48-7.67L183.48-7.67Q183.48-6.74 182.99-5.86L182.99-5.86Q182.5-5.03 180.7-3.91 178.89-2.78 176.69-1.78 174.49-0.78 172.44-0.07 170.39 0.63 169.42 0.63L169.42 0.63Q168.73 0.63 167.8 0.32 166.88 0 165.95-0.49 165.02-0.98 164.26-1.61 163.51-2.25 163.17-2.83L163.17-2.83Q162.97-3.17 162.8-4.2 162.63-5.22 162.51-6.59 162.38-7.96 162.29-9.5 162.19-11.04 162.12-12.43 162.04-13.82 162.02-14.89 161.99-15.97 161.99-16.46L161.99-16.46Q161.99-18.26 162.12-20.61 162.24-22.95 162.58-25.32 162.92-27.69 163.58-29.86 164.24-32.03 165.36-33.54L165.36-33.54Q165.71-33.98 166.73-34.47 167.76-34.96 169.15-35.4 170.54-35.84 172.15-36.23 173.76-36.62 175.25-36.89 176.74-37.16 177.96-37.33 179.18-37.5 179.82-37.5L179.82-37.5Q180.55-37.5 181.21-37.18 181.87-36.87 182.33-36.33 182.8-35.79 183.06-35.13 183.33-34.47 183.33-33.74L183.33-33.74Q183.33-33.11 183.16-32.67 182.99-32.23 182.65-31.69L182.65-31.69Q182.16-31.05 180.6-30.18 179.04-29.3 177.2-28.44 175.37-27.59 173.69-26.9 172-26.22 171.32-25.93L171.32-25.93Q171.13-24.8 170.91-23.66 170.69-22.51 170.59-21.34L170.59-21.34Q172.1-22.12 174.01-22.8 175.91-23.49 177.62-23.49L177.62-23.49Q181.09-23.49 181.09-20.07L181.09-20.07Q181.09-19.24 180.77-18.6 180.45-17.97 179.94-17.48 179.43-16.99 178.77-16.63 178.11-16.26 177.47-15.92L177.47-15.92Q175.91-15.09 174.2-14.48 172.49-13.87 170.78-13.28L170.78-13.28Q170.69-12.89 170.59-12.43 170.49-11.96 170.49-11.52L170.49-11.52Q170.49-10.84 170.59-10.16 170.69-9.47 170.78-8.79L170.78-8.79Q171.37-8.98 172.66-9.42 173.96-9.86 175.37-10.3 176.79-10.74 178.11-11.06 179.43-11.38 180.06-11.38L180.06-11.38Q180.79-11.38 181.43-11.06 182.06-10.74 182.5-10.23 182.94-9.72 183.21-9.03 183.48-8.35 183.48-7.67ZM210.33-7.23L210.33-7.23Q210.33-6.25 210.16-4.88 209.99-3.52 209.5-2.27 209.01-1.03 208.18-0.17 207.35 0.68 205.99 0.68L205.99 0.68Q204.18 0.68 203.28-0.63 202.37-1.95 201.98-3.78 201.59-5.62 201.52-7.52 201.44-9.42 201.4-10.55L201.4-10.55Q197.88-9.96 194.46-9.52L194.46-9.52Q194.36-8.4 194.05-6.74 193.73-5.08 193.07-3.54 192.41-2 191.36-0.88 190.31 0.24 188.8 0.24L188.8 0.24Q187.63 0.24 186.97-0.61 186.31-1.46 185.97-2.64 185.62-3.81 185.55-5.05 185.48-6.3 185.48-7.13L185.48-7.13Q185.48-9.91 185.92-12.62 186.36-15.33 186.94-18.02L186.94-18.02Q187.24-19.43 187.72-21.34 188.21-23.24 188.92-25.27 189.63-27.29 190.58-29.27 191.53-31.25 192.75-32.81 193.97-34.38 195.54-35.35 197.1-36.33 199-36.33L199-36.33Q200.86-36.33 202.23-35.5 203.59-34.67 204.62-33.3 205.64-31.93 206.33-30.2 207.01-28.47 207.48-26.68 207.94-24.9 208.26-23.19 208.57-21.48 208.82-20.17L208.82-20.17Q209.45-16.99 209.89-13.75 210.33-10.5 210.33-7.23ZM200.91-17.68L200.91-19.09Q200.91-19.68 200.83-21.02 200.76-22.36 200.52-23.71 200.27-25.05 199.76-26.1 199.25-27.15 198.37-27.15L198.37-27.15Q197.88-27.15 197.44-26.49 197-25.83 196.66-24.83 196.32-23.83 196.05-22.61 195.78-21.39 195.59-20.26 195.39-19.14 195.29-18.24 195.19-17.33 195.15-16.94L195.15-16.94Q198.08-17.19 200.91-17.68L200.91-17.68ZM241.92-20.95L241.92-20.95Q241.92-19.87 241.82-17.9 241.73-15.92 241.46-13.55 241.19-11.18 240.7-8.72 240.21-6.25 239.43-4.25 238.65-2.25 237.53-0.95 236.4 0.34 234.84 0.34L234.84 0.34Q233.38 0.34 232.16-0.51 230.93-1.37 229.96-2.61 228.98-3.86 228.25-5.27 227.52-6.69 227.03-7.86L227.03-7.86Q226-10.35 224.98-12.77 223.95-15.19 223.02-17.68L223.02-17.68 223.02-16.31Q223.02-14.21 223-12.13 222.98-10.06 222.68-8.01L222.68-8.01Q222.58-7.18 222.46-6.08 222.34-4.98 222.1-3.91 221.85-2.83 221.39-1.9 220.92-0.98 220.14-0.54L220.14-0.54Q219.7-0.29 219.34-0.24 218.97-0.2 218.53-0.1L218.53-0.1 218.39-0.1Q217.26-0.1 216.48-0.85 215.7-1.61 215.16-2.81 214.63-4 214.31-5.49 213.99-6.98 213.82-8.42 213.65-9.86 213.6-11.08 213.55-12.3 213.55-13.04L213.55-13.04Q213.55-14.16 213.65-16.33 213.75-18.51 214.06-21.14 214.38-23.78 214.89-26.56 215.41-29.35 216.24-31.62 217.07-33.89 218.24-35.33 219.41-36.77 220.97-36.77L220.97-36.77Q222.49-36.77 223.68-35.6 224.88-34.42 225.81-32.81 226.74-31.2 227.37-29.44 228-27.69 228.44-26.51L228.44-26.51Q229.27-24.22 230.06-21.95 230.84-19.68 231.57-17.33L231.57-17.33Q231.62-17.24 231.76-16.8 231.91-16.36 232.11-15.82L232.11-15.82Q232.3-15.23 232.59-14.5L232.59-14.5Q232.59-15.14 232.57-15.41 232.55-15.67 232.55-15.89 232.55-16.11 232.55-16.46 232.55-16.8 232.55-17.53L232.55-17.53Q232.5-19.14 232.47-20.75 232.45-22.36 232.45-23.93L232.45-23.93Q232.45-24.61 232.47-25.83 232.5-27.05 232.62-28.44 232.74-29.83 232.99-31.25 233.23-32.67 233.69-33.81 234.16-34.96 234.87-35.69 235.57-36.43 236.6-36.43L236.6-36.43Q237.82-36.43 238.7-35.5 239.58-34.57 240.16-33.13 240.75-31.69 241.09-29.91 241.43-28.13 241.63-26.42 241.82-24.71 241.87-23.24 241.92-21.78 241.92-20.95ZM261.11-34.28L261.11-34.28Q261.11-33.15 260.4-32.32 259.69-31.49 258.72-30.96L258.72-30.96Q257.84-30.42 256.91-29.81 255.98-29.2 255.2-28.44 254.42-27.69 253.93-26.76 253.44-25.83 253.44-24.66L253.44-24.66Q253.44-23.63 253.93-22.8 254.42-21.97 255.13-21.17 255.83-20.36 256.69-19.51 257.54-18.65 258.25-17.6 258.96-16.55 259.45-15.23 259.94-13.92 259.94-12.16L259.94-12.16Q259.94-10.94 259.42-9.4 258.91-7.86 258.03-6.3 257.15-4.74 255.96-3.27 254.76-1.81 253.42-0.66 252.07 0.49 250.61 1.2 249.14 1.9 247.78 1.9L247.78 1.9Q246.26 1.9 245.09 1.07 243.92 0.24 243.92-1.42L243.92-1.42Q243.92-2.54 244.46-3.49 244.99-4.44 245.78-5.32 246.56-6.2 247.51-7.03 248.46-7.86 249.24-8.69 250.02-9.52 250.56-10.42 251.1-11.33 251.1-12.35L251.1-12.35Q251.1-13.77 250.1-15.26 249.1-16.75 247.88-18.33 246.65-19.92 245.65-21.58 244.65-23.24 244.65-24.95L244.65-24.95Q244.65-27.05 245.78-29.37 246.9-31.69 248.66-33.62 250.41-35.55 252.61-36.82 254.81-38.09 256.96-38.09L256.96-38.09Q258.67-38.09 259.89-37.06 261.11-36.04 261.11-34.28Z" opacity="1" transform="matrix(1,0,0,1,0,0)" fill="#ffffff" class="undefined-text-0" data-fill-palette-color="primary" id="text-0"></path></svg></g></svg></g><g transform="matrix(1,0,0,1,163.310208,76.22571266166636)"><svg viewBox="0 0 232.209792 23.388899504132233" height="23.388899504132233" width="232.209792"><g transform="matrix(1,0,0,1,0,0)"><svg width="232.209792" viewBox="2 -38 387.1700134277344 39" height="23.388899504132233" data-palette-color="#332885"><path d="M27.8-11.3L28.5-11.3Q27.8-10.65 27.58-9.25 27.35-7.85 27.35-5.1L27.35-5.1 27.35 0 2 0 2-1.25Q2.95-0.95 3.75-0.95L3.75-0.95Q4.7-0.95 5.23-1.48 5.75-2 5.75-3L5.75-3 5.75-34Q5.75-35 5.23-35.52 4.7-36.05 3.75-36.05L3.75-36.05Q2.95-36.05 2-35.75L2-35.75 2-37 25.25-37 25.1-35.55Q24.95-34.6 24.95-33.1L24.95-33.1Q24.95-30.15 25.65-28.5L25.65-28.5 24.85-28.5Q24.3-29.55 24.05-31.25L24.05-31.25Q23.7-33.05 23.1-34.08 22.5-35.1 20.65-35.8 18.8-36.5 15.1-36.5L15.1-36.5Q12.45-36.5 11.25-35.6 10.05-34.7 9.83-33.68 9.6-32.65 9.5-30.75L9.5-30.75 9.5-21.25 16.4-21.25Q17.85-21.25 18.43-21.33 19-21.4 19.3-21.75 19.6-22.1 19.6-22.95L19.6-22.95Q19.6-24.45 19.43-25.2 19.25-25.95 18.4-25.95L18.4-25.95 18.4-26.6 20.35-26.6 20.35-15 18.4-15 18.4-15.7Q19.25-15.7 19.43-16.53 19.6-17.35 19.6-18.9L19.6-18.9Q19.6-19.7 18.93-19.98 18.25-20.25 16.4-20.3L16.4-20.3 9.5-20.3 9.5-6.25Q9.6-4.55 9.9-3.43 10.2-2.3 11.48-1.4 12.75-0.5 15.4-0.5L15.4-0.5Q19.7-0.5 21.95-1.43 24.2-2.35 25-3.73 25.8-5.1 26.4-7.45L26.4-7.45Q27-10 27.8-11.3L27.8-11.3ZM29-1.25Q30.45-0.8 31.2-0.8L31.2-0.8Q32.55-0.8 33.25-2L33.25-2 35.45-5.65 42.7-18 33.9-34Q33.35-35.05 32.67-35.58 32-36.1 31.05-36.1L31.05-36.1Q30.55-36.1 29.3-35.75L29.3-35.75 29.3-37 41.35-37 41.35-35.75Q40.1-36.1 39.5-36.1L39.5-36.1Q38.7-36.1 38.22-35.8 37.75-35.5 37.75-34.9L37.75-34.9Q37.75-34.45 38-34L38-34 44.8-21.6 51.3-32.75 51.9-33.9Q52.15-34.35 52.15-34.8L52.15-34.8Q52.15-35.45 51.5-35.8 50.85-36.15 49.85-36.15L49.85-36.15Q48.85-36.15 47.65-35.75L47.65-35.75 47.65-37 58.1-37 58.1-35.75Q56.65-36.2 55.9-36.2L55.9-36.2Q54.55-36.2 53.85-35L53.85-35Q49.4-27.45 45.4-20.5L45.4-20.5 54.75-3.45 55-3Q55.6-1.95 56.27-1.45 56.95-0.95 57.9-0.95L57.9-0.95Q58.65-0.95 59.6-1.25L59.6-1.25 59.6 0 47.55 0 47.55-1.25Q48.55-0.9 49.45-0.9L49.45-0.9Q50.25-0.9 50.72-1.2 51.2-1.5 51.2-2.05L51.2-2.05Q51.2-2.5 50.9-3L50.9-3 43.3-16.85Q38.4-8.45 35.8-4.2L35.8-4.2 35.2-3.1Q34.95-2.65 34.95-2.2L34.95-2.2Q34.95-1.55 35.6-1.2 36.25-0.85 37.25-0.85L37.25-0.85Q38.25-0.85 39.45-1.25L39.45-1.25 39.45 0 29 0 29-1.25ZM76.59 1Q72.34 1 68.52-1.68 64.69-4.35 62.39-8.85 60.09-13.35 60.09-18.5L60.09-18.5Q60.09-24.1 62.3-28.55 64.5-33 68.3-35.5 72.09-38 76.75-38L76.75-38Q79.34-38 82.72-36.6 86.09-35.2 87.44-33.4L87.44-33.4 88.19-37.15 89.05-37.15 89.05-26 88-26Q88-28.6 86.42-31.15 84.84-33.7 82.09-35.35 79.34-37 76.05-37L76.05-37Q72.64-37 70-34.6 67.34-32.2 65.84-28.03 64.34-23.85 64.34-18.7L64.34-18.7Q64.34-13.75 65.82-9.47 67.3-5.2 70.32-2.6 73.34 0 77.69 0L77.69 0Q80.89 0 83.55-1.85 86.19-3.7 87.5-6.65L87.5-6.65Q87.64-7 88.09-8.7L88.09-8.7Q88.44-10.2 88.82-11.23 89.19-12.25 89.84-13.05L89.84-13.05 90.55-13.05Q89.75-12.35 89.42-10.45 89.09-8.55 89.09-5.2L89.09-5.2Q89.09-4 87.17-2.53 85.25-1.05 82.32-0.03 79.39 1 76.59 1L76.59 1ZM119.34-11.3L120.04-11.3Q119.34-10.65 119.12-9.25 118.89-7.85 118.89-5.1L118.89-5.1 118.89 0 93.54 0 93.54-1.25Q94.49-0.95 95.29-0.95L95.29-0.95Q96.24-0.95 96.77-1.48 97.29-2 97.29-3L97.29-3 97.29-34Q97.29-35 96.77-35.52 96.24-36.05 95.29-36.05L95.29-36.05Q94.49-36.05 93.54-35.75L93.54-35.75 93.54-37 116.79-37 116.64-35.55Q116.49-34.6 116.49-33.1L116.49-33.1Q116.49-30.15 117.19-28.5L117.19-28.5 116.39-28.5Q115.84-29.55 115.59-31.25L115.59-31.25Q115.24-33.05 114.64-34.08 114.04-35.1 112.19-35.8 110.34-36.5 106.64-36.5L106.64-36.5Q103.99-36.5 102.79-35.6 101.59-34.7 101.37-33.68 101.14-32.65 101.04-30.75L101.04-30.75 101.04-21.25 107.94-21.25Q109.39-21.25 109.97-21.33 110.54-21.4 110.84-21.75 111.14-22.1 111.14-22.95L111.14-22.95Q111.14-24.45 110.97-25.2 110.79-25.95 109.94-25.95L109.94-25.95 109.94-26.6 111.89-26.6 111.89-15 109.94-15 109.94-15.7Q110.79-15.7 110.97-16.53 111.14-17.35 111.14-18.9L111.14-18.9Q111.14-19.7 110.47-19.98 109.79-20.25 107.94-20.3L107.94-20.3 101.04-20.3 101.04-6.25Q101.14-4.55 101.44-3.43 101.74-2.3 103.02-1.4 104.29-0.5 106.94-0.5L106.94-0.5Q111.24-0.5 113.49-1.43 115.74-2.35 116.54-3.73 117.34-5.1 117.94-7.45L117.94-7.45Q118.54-10 119.34-11.3L119.34-11.3ZM148.84-11.3L149.54-11.3Q148.84-10.65 148.62-9.25 148.39-7.85 148.39-5.1L148.39-5.1 148.39 0 123.04 0 123.04-1.25Q123.99-0.95 124.79-0.95L124.79-0.95Q125.74-0.95 126.27-1.48 126.79-2 126.79-3L126.79-3 126.79-34Q126.79-35 126.27-35.52 125.74-36.05 124.79-36.05L124.79-36.05Q123.99-36.05 123.04-35.75L123.04-35.75 123.04-37 146.29-37 146.14-35.55Q145.99-34.6 145.99-33.1L145.99-33.1Q145.99-30.15 146.69-28.5L146.69-28.5 145.89-28.5Q145.34-29.55 145.09-31.25L145.09-31.25Q144.74-33.05 144.14-34.08 143.54-35.1 141.69-35.8 139.84-36.5 136.14-36.5L136.14-36.5Q133.49-36.5 132.29-35.6 131.09-34.7 130.87-33.68 130.64-32.65 130.54-30.75L130.54-30.75 130.54-21.25 137.44-21.25Q138.89-21.25 139.47-21.33 140.04-21.4 140.34-21.75 140.64-22.1 140.64-22.95L140.64-22.95Q140.64-24.45 140.47-25.2 140.29-25.95 139.44-25.95L139.44-25.95 139.44-26.6 141.39-26.6 141.39-15 139.44-15 139.44-15.7Q140.29-15.7 140.47-16.53 140.64-17.35 140.64-18.9L140.64-18.9Q140.64-19.7 139.97-19.98 139.29-20.25 137.44-20.3L137.44-20.3 130.54-20.3 130.54-6.25Q130.64-4.55 130.94-3.43 131.24-2.3 132.52-1.4 133.79-0.5 136.44-0.5L136.44-0.5Q140.74-0.5 142.99-1.43 145.24-2.35 146.04-3.73 146.84-5.1 147.44-7.45L147.44-7.45Q148.04-10 148.84-11.3L148.84-11.3ZM152.54-1.25Q153.49-0.95 154.29-0.95L154.29-0.95Q155.24-0.95 155.76-1.48 156.29-2 156.29-3L156.29-3 156.29-34Q156.29-35 155.76-35.52 155.24-36.05 154.29-36.05L154.29-36.05Q153.49-36.05 152.54-35.75L152.54-35.75 152.54-37 167.99-37Q172.29-37 175.91-34.8 179.54-32.6 181.64-28.6 183.74-24.6 183.74-19.5L183.74-19.5Q183.74-14.35 181.61-9.85 179.49-5.35 175.86-2.68 172.24 0 167.99 0L167.99 0 152.54 0 152.54-1.25ZM166.89-0.85Q169.74-0.85 172.71-2.75 175.69-4.65 177.74-8.68 179.79-12.7 179.79-18.7L179.79-18.7Q179.79-23.35 178.01-27.38 176.24-31.4 173.26-33.8 170.29-36.2 166.89-36.2L166.89-36.2 162.39-36.2Q161.49-36.2 160.76-35.68 160.04-35.15 160.04-34L160.04-34 160.04-3Q160.04-1.85 160.76-1.35 161.49-0.85 162.39-0.85L162.39-0.85 166.89-0.85ZM215.28-20.65Q217.08-20.5 219.56-19.58 222.03-18.65 223.93-16.7 225.83-14.75 225.83-11.85L225.83-11.85Q225.83-7.85 223.86-5.18 221.88-2.5 218.76-1.25 215.63 0 212.18 0L212.18 0 199.23 0 199.23-1.25Q200.18-0.95 200.93-0.95L200.93-0.95Q202.88-0.95 202.98-3L202.98-3 202.98-34Q202.88-36.05 200.93-36.05L200.93-36.05Q200.18-36.05 199.23-35.75L199.23-35.75 199.23-37 211.38-37Q216.13-37 219.61-35.1 223.08-33.2 223.08-28.7L223.08-28.7Q223.08-26.55 221.76-24.78 220.43-23 218.58-21.93 216.73-20.85 215.28-20.75L215.28-20.75Q215.18-20.75 215.18-20.7 215.18-20.65 215.28-20.65L215.28-20.65ZM206.73-36.1L206.73-21.25 213.43-21.25Q215.43-21.25 217.53-22.6 219.63-23.95 219.63-28.1L219.63-28.1Q219.68-32.35 217.31-34.43 214.93-36.5 211.48-36.5L211.48-36.5Q208.93-36.5 206.73-36.1L206.73-36.1ZM210.88-0.5Q214.43-0.5 216.88-1.93 219.33-3.35 220.56-5.78 221.78-8.2 221.78-11.15L221.78-11.15Q221.78-14.35 220.48-16.4 219.18-18.45 217.28-19.35 215.38-20.25 213.43-20.25L213.43-20.25 206.73-20.25 206.73-5.7Q206.73-3.45 207.31-2.3 207.88-1.15 208.76-0.83 209.63-0.5 210.88-0.5L210.88-0.5ZM255.38-11.3L256.08-11.3Q255.38-10.65 255.16-9.25 254.93-7.85 254.93-5.1L254.93-5.1 254.93 0 229.58 0 229.58-1.25Q230.53-0.95 231.33-0.95L231.33-0.95Q232.28-0.95 232.81-1.48 233.33-2 233.33-3L233.33-3 233.33-34Q233.33-35 232.81-35.52 232.28-36.05 231.33-36.05L231.33-36.05Q230.53-36.05 229.58-35.75L229.58-35.75 229.58-37 252.83-37 252.68-35.55Q252.53-34.6 252.53-33.1L252.53-33.1Q252.53-30.15 253.23-28.5L253.23-28.5 252.43-28.5Q251.88-29.55 251.63-31.25L251.63-31.25Q251.28-33.05 250.68-34.08 250.08-35.1 248.23-35.8 246.38-36.5 242.68-36.5L242.68-36.5Q240.03-36.5 238.83-35.6 237.63-34.7 237.41-33.68 237.18-32.65 237.08-30.75L237.08-30.75 237.08-21.25 243.98-21.25Q245.43-21.25 246.01-21.33 246.58-21.4 246.88-21.75 247.18-22.1 247.18-22.95L247.18-22.95Q247.18-24.45 247.01-25.2 246.83-25.95 245.98-25.95L245.98-25.95 245.98-26.6 247.93-26.6 247.93-15 245.98-15 245.98-15.7Q246.83-15.7 247.01-16.53 247.18-17.35 247.18-18.9L247.18-18.9Q247.18-19.7 246.51-19.98 245.83-20.25 243.98-20.3L243.98-20.3 237.08-20.3 237.08-6.25Q237.18-4.55 237.48-3.43 237.78-2.3 239.06-1.4 240.33-0.5 242.98-0.5L242.98-0.5Q247.28-0.5 249.53-1.43 251.78-2.35 252.58-3.73 253.38-5.1 253.98-7.45L253.98-7.45Q254.58-10 255.38-11.3L255.38-11.3ZM265.33-1.25Q266.33-0.95 267.03-0.95L267.03-0.95Q268.98-0.95 268.98-3L268.98-3 268.98-17.3 260.18-34Q259.63-35.05 258.95-35.58 258.28-36.1 257.33-36.1L257.33-36.1Q256.83-36.1 255.58-35.75L255.58-35.75 255.58-37 267.63-37 267.63-35.75Q266.43-36.1 265.78-36.1L265.78-36.1Q264.98-36.1 264.5-35.8 264.03-35.5 264.03-34.9L264.03-34.9Q264.03-34.45 264.28-34L264.28-34 272.28-18.5 280.23-32.75 280.83-33.9Q281.08-34.35 281.08-34.8L281.08-34.8Q281.08-35.45 280.43-35.8 279.78-36.15 278.78-36.15L278.78-36.15Q277.78-36.15 276.58-35.75L276.58-35.75 276.58-37 286.38-37 286.38-35.75Q285.48-36.05 284.78-36.05L284.78-36.05Q283.48-36.05 282.78-35L282.78-35Q280.48-31.25 276.98-24.7L276.98-24.7Q274.38-19.85 272.93-17.3L272.93-17.3 272.93-3Q272.93-0.95 274.88-0.95L274.88-0.95Q275.63-0.95 276.58-1.25L276.58-1.25 276.58 0 265.33 0 265.33-1.25ZM302.73 1Q297.68 1 293.98-1.68 290.28-4.35 288.35-8.85 286.43-13.35 286.38-18.75L286.38-18.75Q286.33-23 287.93-27.43 289.53-31.85 293.08-34.93 296.63-38 302.23-38L302.23-38Q307.88-38 311.5-35.08 315.13-32.15 316.75-27.75 318.38-23.35 318.38-18.75L318.38-18.75Q318.38-13.3 316.63-8.83 314.88-4.35 311.35-1.68 307.83 1 302.73 1L302.73 1ZM302.73 0Q308.78 0 311.5-5.23 314.23-10.45 314.18-18.75L314.18-18.75Q314.13-23.05 312.85-27.25 311.58-31.45 308.9-34.23 306.23-37 302.23-37L302.23-37Q298.18-37 295.58-33.98 292.98-30.95 291.8-26.6 290.63-22.25 290.63-18.2L290.63-18.2Q290.63-13.1 291.95-9 293.28-4.9 296-2.45 298.73 0 302.73 0L302.73 0ZM344.17-37.05L354.97-37.05 354.97-35.8Q353.97-36.1 353.07-36.1L353.07-36.1Q351.82-36.1 351.05-35.55 350.27-35 350.27-34.05L350.27-34.05 350.27 1 349.12 1 327.02-33.35 327.07-3Q327.07-2.05 328-1.5 328.92-0.95 330.27-0.95L330.27-0.95Q331.32-0.95 332.27-1.25L332.27-1.25 332.27 0 321.37 0 321.37-1.25Q322.32-0.95 323.27-0.95L323.27-0.95Q324.47-0.95 325.2-1.5 325.92-2.05 325.92-3L325.92-3 325.92-34Q325.92-34.95 325.17-35.5 324.42-36.05 323.22-36.05L323.22-36.05Q322.37-36.05 321.37-35.75L321.37-35.75 321.37-37 329.22-37 349.12-6.85 349.12-34.05Q349.12-35 348.27-35.55 347.42-36.1 346.12-36.1L346.12-36.1Q345.12-36.1 344.17-35.8L344.17-35.8 344.17-37.05ZM357.97-1.25Q358.92-0.95 359.72-0.95L359.72-0.95Q360.67-0.95 361.2-1.48 361.72-2 361.72-3L361.72-3 361.72-34Q361.72-35 361.2-35.52 360.67-36.05 359.72-36.05L359.72-36.05Q358.92-36.05 357.97-35.75L357.97-35.75 357.97-37 373.42-37Q377.72-37 381.35-34.8 384.97-32.6 387.07-28.6 389.17-24.6 389.17-19.5L389.17-19.5Q389.17-14.35 387.05-9.85 384.92-5.35 381.3-2.68 377.67 0 373.42 0L373.42 0 357.97 0 357.97-1.25ZM372.32-0.85Q375.17-0.85 378.15-2.75 381.12-4.65 383.17-8.68 385.22-12.7 385.22-18.7L385.22-18.7Q385.22-23.35 383.45-27.38 381.67-31.4 378.7-33.8 375.72-36.2 372.32-36.2L372.32-36.2 367.82-36.2Q366.92-36.2 366.2-35.68 365.47-35.15 365.47-34L365.47-34 365.47-3Q365.47-1.85 366.2-1.35 366.92-0.85 367.82-0.85L367.82-0.85 372.32-0.85Z" opacity="1" transform="matrix(1,0,0,1,0,0)" fill="#ffffff" class="undefined-text-1" data-fill-palette-color="secondary" id="text-1"></path></svg></g></svg></g></svg></g></svg></g><g transform="matrix(1,0,0,1,410.07821595299606,0)"><svg viewBox="0 0 244.43135999999998 122.51779831843523" height="122.51779831843523" width="244.43135999999998"><g><svg xmlns="http://www.w3.org/2000/svg" xmlns:xlink="http://www.w3.org/1999/xlink" xml:space="preserve" style="shape-rendering:geometricPrecision;text-rendering:geometricPrecision;image-rendering:optimizeQuality;" viewBox="0.0000020265579223632812 0.0000027120113372802734 14.727499008178711 7.38195276260376" x="0" y="0" fill-rule="evenodd" clip-rule="evenodd" width="244.43135999999998" height="122.51779831843523" class="icon-icon-0" data-fill-palette-color="accent" id="icon-0"><g fill="#332885" data-fill-palette-color="accent"><path class="" d="M1.757 3.091c-0.313 0.444-0.296 1.331-0.417 1.95-0.153 0.784-0.711 1.203-1.34 1.534 0.188-0.771 0.348-1.542 0.412-2.313 0.078-0.953-0.06-0.891 0.767-1.575 1.159-0.961 3.04-1.741 5.848-2.29 2.456-0.406 5.049-0.453 7.701-0.351-0.89 1.809-3.733 1.961-7.203 1.581-1.811 0.02-3.495-0.488-5.768 1.464z m8.33 2.781c-3.895 2.038-7.803-2.284-9.165 0.688 2.104-1.831 5.079 3.183 9.165-0.688z m2.489-2.547c-4.49 2.72-9.502-0.792-10.907 1.859 3.412-1.235 7.765 2.753 10.907-1.859z m0.834-1.478c-3.944 1.761-10.043-1.402-11.565 2.239 3.106-1.808 8.446 1.438 11.565-2.239z" fill="#ffffff" data-fill-palette-color="accent"></path></g></svg></g></svg></g></svg></g><defs></defs></svg><rect width="395.52" height="74.03747992586675" fill="none" stroke="none" visibility="hidden"></rect></g></svg></g></svg>